<svg width="235" height="266" viewBox="0 0 235 266" fill="none" xmlns="http://www.w3.org/2000/svg">
<mask id="path-1-outside-1_5_270" maskUnits="userSpaceOnUse" x="12.0185" y="0.797349" width="41.1557" height="260.315" fill="black">
<rect fill="white" x="12.0185" y="0.797349" width="41.1557" height="260.315"/>
<path d="M14.1206 13.4221L14.0358 3.19515L49.0393 14.4279L49.1467 27.382L14.3344 39.1939L14.2496 28.967L39.4808 21.121L39.4786 20.8483L14.1206 13.4221ZM27.877 11.3988L28.0365 30.6254L20.9459 30.6842L20.7864 11.4576L27.877 11.3988ZM14.3623 42.556L49.2702 42.2664L49.3958 57.4022C49.4179 60.0612 49.0784 62.2971 48.3775 64.1098C47.6767 65.9338 46.6768 67.3115 45.3776 68.2428C44.0786 69.1854 42.5427 69.6641 40.7701 69.6788C39.486 69.6894 38.3133 69.4151 37.2518 68.8557C36.1904 68.3076 35.2975 67.5309 34.5732 66.5255C33.8603 65.52 33.3619 64.3423 33.078 62.9924L32.7371 62.9952C32.6927 64.4956 32.3233 65.8624 31.629 67.0954C30.946 68.3284 29.9939 69.3136 28.7727 70.051C27.5629 70.7884 26.1342 71.1639 24.4865 71.1776C22.5775 71.1934 20.8745 70.7075 19.3776 69.7199C17.8808 68.7436 16.6987 67.3443 15.8313 65.5219C14.9639 63.6995 14.5197 61.5213 14.4987 58.9873L14.3623 42.556ZM22.0089 51.9702L22.0456 56.4018C22.0588 57.9927 22.3642 59.1834 22.9617 59.9739C23.5705 60.7643 24.4602 61.1547 25.6306 61.145C26.4487 61.1382 27.1403 60.945 27.7054 60.5653C28.2704 60.1856 28.6978 59.6479 28.9875 58.9523C29.2773 58.268 29.4182 57.443 29.4102 56.4771L29.3723 51.9091L22.0089 51.9702ZM35.2357 51.8604L35.2679 55.7467C35.2748 56.5762 35.4116 57.308 35.6782 57.9422C35.9448 58.5764 36.3239 59.0676 36.8155 59.4158C37.3185 59.7752 37.9279 59.952 38.6438 59.9461C39.7233 59.9371 40.5439 59.5439 41.1057 58.7665C41.6788 57.989 41.9605 57.0094 41.9507 55.8276L41.9173 51.805L35.2357 51.8604ZM32.3628 108.29C28.4766 108.322 25.192 107.593 22.5091 106.104C19.8376 104.615 17.8037 102.592 16.4074 100.035C15.0226 97.4786 14.317 94.6207 14.2908 91.4617C14.2644 88.28 14.928 85.3994 16.2817 82.8199C17.6468 80.2517 19.6525 78.2009 22.299 76.6675C24.9569 75.1454 28.2176 74.3683 32.0811 74.3362C35.9674 74.304 39.2462 75.0268 41.9177 76.5047C44.6006 77.9939 46.6344 80.0112 48.0192 82.5566C49.4155 85.1133 50.1268 87.9825 50.1532 91.1642C50.1794 94.3231 49.5157 97.1924 48.162 99.7719C46.8198 102.351 44.8197 104.408 42.1619 105.941C39.5154 107.475 36.2491 108.257 32.3628 108.29ZM32.282 98.54C34.3728 98.5226 36.1318 98.2296 37.5589 97.6609C38.9975 97.1035 40.0817 96.282 40.8113 95.1964C41.5524 94.122 41.9165 92.8007 41.9035 91.2326C41.8905 89.6645 41.5045 88.3438 40.7456 87.2705C39.9981 86.2085 38.9005 85.405 37.4527 84.8602C36.0164 84.3267 34.2529 84.0686 32.162 84.0859C30.0712 84.1033 28.3065 84.3906 26.8679 84.948C25.4407 85.5167 24.3566 86.3382 23.6155 87.4126C22.8858 88.4982 22.5275 89.8251 22.5405 91.3933C22.5535 92.9614 22.9338 94.2765 23.6812 95.3385C24.4402 96.4118 25.5378 97.2152 26.9741 97.7487C28.4218 98.2936 30.1911 98.5573 32.282 98.54ZM50.0246 133.188L50.1032 142.665L27.7403 142.85C25.0813 142.873 22.775 142.255 20.8213 140.999C18.8791 139.753 17.3702 138.005 16.2947 135.752C15.2305 133.499 14.686 130.879 14.6612 127.89C14.6362 124.879 15.1371 122.238 16.1637 119.968C17.2017 117.698 18.6814 115.925 20.6027 114.647C22.5354 113.381 24.8313 112.737 27.4903 112.715L49.8532 112.53L49.9318 122.007L28.3871 122.185C27.3076 122.194 26.3437 122.441 25.4954 122.925C24.6585 123.409 24.0049 124.074 23.5346 124.919C23.0644 125.775 22.8338 126.743 22.8427 127.822C22.8518 128.913 23.0984 129.877 23.5827 130.714C24.0669 131.551 24.7314 132.205 25.5763 132.675C26.4325 133.145 27.4003 133.376 28.4798 133.367L50.0246 133.188ZM42.4965 146.278L50.1326 146.215L50.3844 176.554L42.7483 176.618L42.6611 166.118L15.3894 166.344L15.3119 157.004L42.5836 156.778L42.4965 146.278ZM50.4933 189.683L50.5911 201.478L30.8864 209.756L30.8898 210.165L50.7292 218.114L50.827 229.909L15.9191 230.199L15.8422 220.926L36.0233 220.759L36.0211 220.486L16.0482 212.879L16.0018 207.288L35.9821 199.349L35.9798 199.077L15.6623 199.245L15.5854 189.973L50.4933 189.683ZM15.9564 234.69L50.8643 234.4L51.073 259.559L43.4369 259.622L43.3068 243.941L37.307 243.99L37.4264 258.376L29.7903 258.44L29.6709 244.054L23.6711 244.104L23.8007 259.717L16.1646 259.78L15.9564 234.69Z"/>
</mask>
<path d="M14.1206 13.4221L13.1206 13.4304L13.1268 14.173L13.8396 14.3818L14.1206 13.4221ZM14.0358 3.19515L14.3413 2.24298L13.0243 1.82035L13.0358 3.20345L14.0358 3.19515ZM49.0393 14.4279L50.0392 14.4196L50.0332 13.6966L49.3448 13.4757L49.0393 14.4279ZM49.1467 27.382L49.468 28.3289L50.1527 28.0966L50.1467 27.3737L49.1467 27.382ZM14.3344 39.1939L13.3345 39.2022L13.3459 40.5853L14.6557 40.1409L14.3344 39.1939ZM14.2496 28.967L13.9526 28.0121L13.2435 28.2326L13.2496 28.9753L14.2496 28.967ZM39.4808 21.121L39.7778 22.0759L40.4869 21.8554L40.4808 21.1127L39.4808 21.121ZM39.4786 20.8483L40.4785 20.84L40.4724 20.0974L39.7596 19.8886L39.4786 20.8483ZM27.877 11.3988L28.877 11.3905L28.8687 10.3905L27.8687 10.3988L27.877 11.3988ZM28.0365 30.6254L28.0448 31.6254L29.0448 31.6171L29.0365 30.6171L28.0365 30.6254ZM20.9459 30.6842L19.9459 30.6925L19.9542 31.6925L20.9542 31.6842L20.9459 30.6842ZM20.7864 11.4576L20.7781 10.4576L19.7781 10.4659L19.7864 11.4659L20.7864 11.4576ZM15.1206 13.4138L15.0357 3.18685L13.0358 3.20345L13.1206 13.4304L15.1206 13.4138ZM13.7302 4.14733L48.7337 15.38L49.3448 13.4757L14.3413 2.24298L13.7302 4.14733ZM48.0393 14.4362L48.1468 27.3903L50.1467 27.3737L50.0392 14.4196L48.0393 14.4362ZM48.8254 26.435L14.0131 38.2469L14.6557 40.1409L49.468 28.3289L48.8254 26.435ZM15.3344 39.1856L15.2495 28.9587L13.2496 28.9753L13.3345 39.2022L15.3344 39.1856ZM14.5465 29.9219L39.7778 22.0759L39.1839 20.1661L13.9526 28.0121L14.5465 29.9219ZM40.4808 21.1127L40.4785 20.84L38.4786 20.8566L38.4808 21.1293L40.4808 21.1127ZM39.7596 19.8886L14.4017 12.4624L13.8396 14.3818L39.1975 21.808L39.7596 19.8886ZM26.8771 11.4071L27.0366 30.6337L29.0365 30.6171L28.877 11.3905L26.8771 11.4071ZM28.0282 29.6254L20.9376 29.6843L20.9542 31.6842L28.0448 31.6254L28.0282 29.6254ZM21.9458 30.6759L21.7863 11.4493L19.7864 11.4659L19.9459 30.6925L21.9458 30.6759ZM20.7947 12.4576L27.8853 12.3987L27.8687 10.3988L20.7781 10.4576L20.7947 12.4576ZM14.3623 42.556L14.354 41.556L13.3541 41.5643L13.3624 42.5643L14.3623 42.556ZM49.2702 42.2664L50.2702 42.2581L50.2619 41.2581L49.2619 41.2664L49.2702 42.2664ZM48.3775 64.1098L47.4448 63.7491L47.4441 63.7511L48.3775 64.1098ZM45.3776 68.2428L44.795 67.43L44.7903 67.4334L45.3776 68.2428ZM37.2518 68.8557L37.718 67.971L37.7105 67.9671L37.2518 68.8557ZM34.5732 66.5255L33.7575 67.1039L33.7619 67.11L34.5732 66.5255ZM33.078 62.9924L34.0566 62.7865L33.8881 61.9856L33.0697 61.9924L33.078 62.9924ZM32.7371 62.9952L32.7288 61.9952L31.766 62.0032L31.7375 62.9656L32.7371 62.9952ZM31.629 67.0954L30.7576 66.6048L30.7542 66.6109L31.629 67.0954ZM28.7727 70.051L28.2558 69.195L28.2523 69.1971L28.7727 70.051ZM19.3776 69.7199L19.9284 68.8852L19.9239 68.8823L19.3776 69.7199ZM15.8313 65.5219L16.7343 65.0921L16.7343 65.0921L15.8313 65.5219ZM22.0089 51.9702L22.0006 50.9702L21.0006 50.9785L21.0089 51.9785L22.0089 51.9702ZM22.9617 59.9739L22.1639 60.5769L22.1695 60.5841L22.9617 59.9739ZM28.9875 58.9523L28.0667 58.5623L28.0644 58.5678L28.9875 58.9523ZM29.3723 51.9091L30.3722 51.9008L30.3639 50.9008L29.364 50.9091L29.3723 51.9091ZM35.2357 51.8604L35.2274 50.8605L34.2274 50.8688L34.2357 51.8687L35.2357 51.8604ZM35.6782 57.9422L34.7564 58.3298L34.7564 58.3298L35.6782 57.9422ZM36.8155 59.4158L37.3969 58.6022L37.3935 58.5998L36.8155 59.4158ZM41.1057 58.7665L40.3007 58.1731L40.2952 58.1808L41.1057 58.7665ZM41.9173 51.805L42.9172 51.7967L42.909 50.7967L41.909 50.805L41.9173 51.805ZM14.3706 43.556L49.2785 43.2664L49.2619 41.2664L14.354 41.556L14.3706 43.556ZM48.2703 42.2747L48.3958 57.4105L50.3958 57.3939L50.2702 42.2581L48.2703 42.2747ZM48.3958 57.4105C48.4172 59.9868 48.0869 62.0887 47.4448 63.7491L49.3102 64.4704C50.07 62.5054 50.4185 60.1357 50.3958 57.3939L48.3958 57.4105ZM47.4441 63.7511C46.7976 65.4337 45.9031 66.6357 44.795 67.43L45.9602 69.0555C47.4504 67.9873 48.5559 66.434 49.311 64.4684L47.4441 63.7511ZM44.7903 67.4334C43.6773 68.241 42.3491 68.6656 40.7618 68.6788L40.7784 70.6787C42.7364 70.6625 44.4799 70.1297 45.9649 69.0521L44.7903 67.4334ZM40.7618 68.6788C39.6311 68.6882 38.6231 68.4479 37.718 67.971L36.7855 69.7403C38.0035 70.3822 39.341 70.6907 40.7784 70.6787L40.7618 68.6788ZM37.7105 67.9671C36.7943 67.494 36.0205 66.8236 35.3846 65.941L33.7619 67.11C34.5746 68.2382 35.5865 69.1213 36.793 69.7442L37.7105 67.9671ZM35.389 65.9471C34.7643 65.066 34.3157 64.0185 34.0566 62.7865L32.0994 63.1982C32.4081 64.6662 32.9564 65.9741 33.7575 67.1039L35.389 65.9471ZM33.0697 61.9924L32.7288 61.9952L32.7454 63.9951L33.0863 63.9923L33.0697 61.9924ZM31.7375 62.9656C31.6976 64.3144 31.3677 65.5213 30.7577 66.6048L32.5004 67.5861C33.279 66.2034 33.6878 64.6769 33.7366 63.0247L31.7375 62.9656ZM30.7542 66.6109C30.1571 67.6889 29.3292 68.5468 28.2558 69.195L29.2897 70.9071C30.6587 70.0804 31.735 68.9679 32.5038 67.58L30.7542 66.6109ZM28.2523 69.1971C27.2205 69.826 25.975 70.1652 24.4782 70.1776L24.4948 72.1775C26.2934 72.1626 27.9053 71.7508 29.2932 70.905L28.2523 69.1971ZM24.4782 70.1776C22.7543 70.1919 21.2485 69.7562 19.9283 68.8852L18.8269 70.5546C20.5005 71.6588 22.4006 72.1949 24.4948 72.1775L24.4782 70.1776ZM19.9239 68.8823C18.6005 68.0191 17.5331 66.7704 16.7343 65.0921L14.9284 65.9517C15.8644 67.9182 17.1612 69.4681 18.8313 70.5575L19.9239 68.8823ZM16.7343 65.0921C15.9434 63.4306 15.5187 61.4033 15.4986 58.979L13.4987 58.9956C13.5206 61.6393 13.9844 63.9683 14.9284 65.9517L16.7343 65.0921ZM15.4986 58.979L15.3623 42.5477L13.3624 42.5643L13.4987 58.9956L15.4986 58.979ZM21.0089 51.9785L21.0457 56.4101L23.0456 56.3935L23.0088 51.9619L21.0089 51.9785ZM21.0457 56.4101C21.0597 58.0957 21.3795 59.5391 22.1639 60.5769L23.7594 59.3709C23.3488 58.8277 23.058 57.8897 23.0456 56.3935L21.0457 56.4101ZM22.1695 60.5841C23.0039 61.6675 24.2166 62.1568 25.6389 62.145L25.6223 60.145C24.7037 60.1526 24.1371 59.8612 23.7539 59.3637L22.1695 60.5841ZM25.6389 62.145C26.6128 62.1369 27.5052 61.9046 28.2631 61.3953L27.1476 59.7352C26.7755 59.9853 26.2846 60.1395 25.6223 60.145L25.6389 62.145ZM28.2631 61.3953C29.0082 60.8946 29.5539 60.1934 29.9106 59.3367L28.0644 58.5678C27.8417 59.1024 27.5326 59.4765 27.1476 59.7352L28.2631 61.3953ZM29.9083 59.3423C30.2649 58.5004 30.4189 57.5323 30.4101 56.4688L28.4102 56.4854C28.4174 57.3537 28.2897 58.0357 28.0667 58.5623L29.9083 59.3423ZM30.4101 56.4688L30.3722 51.9008L28.3723 51.9174L28.4102 56.4854L30.4101 56.4688ZM29.364 50.9091L22.0006 50.9702L22.0172 52.9701L29.3806 52.909L29.364 50.9091ZM34.2357 51.8687L34.268 55.755L36.2679 55.7384L36.2357 51.8521L34.2357 51.8687ZM34.268 55.755C34.2757 56.6886 34.43 57.5535 34.7564 58.3298L36.6 57.5546C36.3932 57.0626 36.2739 56.4638 36.2679 55.7384L34.268 55.755ZM34.7564 58.3298C35.0848 59.111 35.5728 59.761 36.2374 60.2318L37.3935 58.5998C37.075 58.3742 36.8048 58.0417 36.6 57.5546L34.7564 58.3298ZM36.234 60.2294C36.9351 60.7304 37.7595 60.9534 38.6521 60.946L38.6355 58.9461C38.0964 58.9506 37.7018 58.8201 37.3969 58.6022L36.234 60.2294ZM38.6521 60.946C40.0037 60.9348 41.1428 60.4226 41.9162 59.3522L40.2952 58.1808C39.9451 58.6653 39.4429 58.9394 38.6355 58.9461L38.6521 60.946ZM41.9106 59.3599C42.6387 58.3722 42.9618 57.168 42.9506 55.8193L40.9507 55.8359C40.9591 56.8507 40.7189 57.6058 40.3007 58.1732L41.9106 59.3599ZM42.9506 55.8193L42.9172 51.7967L40.9173 51.8133L40.9507 55.8359L42.9506 55.8193ZM41.909 50.805L35.2274 50.8605L35.244 52.8604L41.9256 52.805L41.909 50.805ZM22.5091 106.104L22.0222 106.978L22.0238 106.979L22.5091 106.104ZM16.4074 100.035L15.5281 100.512L15.5298 100.515L16.4074 100.035ZM16.2817 82.8199L15.3986 82.3505L15.3962 82.3552L16.2817 82.8199ZM22.299 76.6675L21.8021 75.7997L21.7977 75.8022L22.299 76.6675ZM41.9177 76.5047L42.403 75.6304L42.4017 75.6297L41.9177 76.5047ZM48.0192 82.5566L47.1408 83.0345L47.1416 83.0359L48.0192 82.5566ZM48.162 99.7719L47.2766 99.3072L47.275 99.3103L48.162 99.7719ZM42.1619 105.941L41.6621 105.075L41.6605 105.076L42.1619 105.941ZM37.5589 97.6609L37.1976 96.7284L37.1888 96.732L37.5589 97.6609ZM40.8113 95.1964L39.9881 94.6285L39.9814 94.6385L40.8113 95.1964ZM40.7456 87.2705L39.9278 87.846L39.9291 87.8478L40.7456 87.2705ZM37.4527 84.8602L37.8049 83.9243L37.801 83.9228L37.4527 84.8602ZM26.8679 84.948L26.5066 84.0155L26.4977 84.0191L26.8679 84.948ZM23.6155 87.4126L22.7923 86.8447L22.7855 86.8548L23.6155 87.4126ZM23.6812 95.3385L22.8635 95.914L22.8647 95.9158L23.6812 95.3385ZM26.9741 97.7487L27.3263 96.8128L27.3223 96.8113L26.9741 97.7487ZM32.3545 107.29C28.5957 107.321 25.4913 106.616 22.9945 105.23L22.0238 106.979C24.8928 108.571 28.3575 109.323 32.3711 109.29L32.3545 107.29ZM22.9961 105.231C20.4807 103.829 18.5863 101.939 17.2851 99.556L15.5298 100.515C17.0211 103.245 19.1945 105.401 22.0222 106.978L22.9961 105.231ZM17.2867 99.5591C15.9863 97.1583 15.3157 94.4633 15.2908 91.4534L13.2908 91.47C13.3183 94.778 14.0588 97.7989 15.5282 100.512L17.2867 99.5591ZM15.2908 91.4534C15.2656 88.4208 15.8969 85.7051 17.1671 83.2846L15.3962 82.3552C13.9591 85.0937 13.2632 88.1391 13.2908 91.47L15.2908 91.4534ZM17.1647 83.2892C18.4374 80.8947 20.3069 78.9775 22.8003 77.5327L21.7977 75.8022C18.9982 77.4242 16.8561 79.6086 15.3987 82.3505L17.1647 83.2892ZM22.796 77.5353C25.271 76.1179 28.3534 75.3672 32.0894 75.3362L32.0728 73.3363C28.0819 73.3694 24.6429 74.1728 21.8021 75.7997L22.796 77.5353ZM32.0894 75.3362C35.8496 75.305 38.9485 76.005 41.4336 77.3797L42.4017 75.6297C39.5439 74.0487 36.0852 73.303 32.0728 73.3363L32.0894 75.3362ZM41.4323 77.3791C43.9595 78.7817 45.8522 80.6658 47.1408 83.0345L48.8976 82.0787C47.4166 79.3565 45.2416 77.206 42.403 75.6304L41.4323 77.3791ZM47.1416 83.0359C48.4518 85.435 49.1281 88.1399 49.1532 91.1725L51.1532 91.1559C51.1255 87.825 50.3792 84.7915 48.8969 82.0773L47.1416 83.0359ZM49.1532 91.1725C49.1782 94.181 48.5473 96.8857 47.2766 99.3072L49.0475 100.237C50.484 97.4991 51.1806 94.4653 51.1532 91.1559L49.1532 91.1725ZM47.275 99.3103C46.0256 101.711 44.1645 103.631 41.6621 105.075L42.6616 106.807C45.4749 105.184 47.6139 102.991 49.0491 100.234L47.275 99.3103ZM41.6605 105.076C39.1993 106.502 36.1135 107.258 32.3545 107.29L32.3711 109.29C36.3846 109.256 39.8315 108.447 42.6632 106.806L41.6605 105.076ZM32.2902 99.5399C34.4632 99.5219 36.3534 99.2178 37.9291 98.5899L37.1888 96.732C35.9102 97.2414 34.2824 97.5233 32.2737 97.54L32.2902 99.5399ZM37.9202 98.5934C39.5146 97.9756 40.7781 97.0385 41.6413 95.7542L39.9814 94.6385C39.3853 95.5255 38.4805 96.2314 37.1976 96.7285L37.9202 98.5934ZM41.6345 95.7642C42.5143 94.4888 42.9178 92.9558 42.9034 91.2243L40.9035 91.2409C40.9152 92.6457 40.5906 93.7552 39.9882 94.6285L41.6345 95.7642ZM42.9034 91.2243C42.8891 89.4924 42.46 87.963 41.5621 86.6931L39.9291 87.8478C40.549 88.7245 40.8919 89.8365 40.9035 91.2409L42.9034 91.2243ZM41.5633 86.6949C40.6797 85.4395 39.4039 84.526 37.8049 83.9243L37.1005 85.7961C38.397 86.2841 39.3165 86.9774 39.9278 87.846L41.5633 86.6949ZM37.801 83.9228C36.2173 83.3345 34.3248 83.0679 32.1537 83.0859L32.1703 85.0859C34.1809 85.0692 35.8155 85.3188 37.1045 85.7976L37.801 83.9228ZM32.1537 83.0859C29.9823 83.104 28.09 83.4021 26.5066 84.0156L27.2292 85.8805C28.523 85.3792 30.1601 85.1026 32.1703 85.0859L32.1537 83.0859ZM26.4977 84.0191C24.9204 84.6476 23.6642 85.5809 22.7923 86.8448L24.4386 87.9804C25.049 87.0956 25.9611 86.3858 27.238 85.877L26.4977 84.0191ZM22.7855 86.8548C21.9226 88.1386 21.5262 89.6727 21.5405 91.4016L23.5405 91.385C23.5288 89.9776 23.849 88.8579 24.4454 87.9704L22.7855 86.8548ZM21.5405 91.4016C21.5549 93.13 21.9766 94.6539 22.8635 95.914L24.499 94.7629C23.8909 93.899 23.5522 92.7928 23.5405 91.385L21.5405 91.4016ZM22.8647 95.9158C23.7583 97.1794 25.0329 98.0944 26.6258 98.6861L27.3223 96.8113C26.0427 96.336 25.1221 95.6441 24.4977 94.7611L22.8647 95.9158ZM26.6219 98.6847C28.2175 99.2851 30.1169 99.558 32.2902 99.5399L32.2737 97.54C30.2653 97.5567 28.6261 97.302 27.3263 96.8128L26.6219 98.6847ZM50.0246 133.188L51.0245 133.18L51.0162 132.18L50.0163 132.188L50.0246 133.188ZM50.1032 142.665L50.1115 143.665L51.1114 143.657L51.1032 142.657L50.1032 142.665ZM20.8213 140.999L21.3623 140.158L21.3611 140.157L20.8213 140.999ZM16.2947 135.752L15.3905 136.179L15.3923 136.183L16.2947 135.752ZM16.1637 119.968L15.2543 119.553L15.2526 119.556L16.1637 119.968ZM20.6027 114.647L20.0547 113.811L20.049 113.815L20.6027 114.647ZM49.8532 112.53L50.8531 112.521L50.8448 111.521L49.8449 111.53L49.8532 112.53ZM49.9318 122.007L49.9401 123.007L50.9401 122.998L50.9318 121.998L49.9318 122.007ZM25.4954 122.925L24.9996 122.057L24.9946 122.06L25.4954 122.925ZM23.5346 124.919L22.6608 124.432L22.6581 124.437L23.5346 124.919ZM23.5827 130.714L22.7171 131.215L22.7171 131.215L23.5827 130.714ZM25.5763 132.675L25.0899 133.549L25.0949 133.551L25.5763 132.675ZM49.0246 133.196L49.1032 142.673L51.1032 142.657L51.0245 133.18L49.0246 133.196ZM50.0949 141.665L27.732 141.851L27.7486 143.85L50.1115 143.665L50.0949 141.665ZM27.732 141.851C25.2387 141.871 23.1295 141.294 21.3623 140.158L20.2804 141.84C22.4205 143.216 24.9239 143.874 27.7486 143.85L27.732 141.851ZM21.3611 140.157C19.5885 139.02 18.1992 137.42 17.1971 135.321L15.3923 136.183C16.5412 138.589 18.1697 140.486 20.2816 141.841L21.3611 140.157ZM17.1988 135.325C16.2077 133.227 15.685 130.754 15.6612 127.882L13.6612 127.899C13.687 131.004 14.2533 133.772 15.3905 136.179L17.1988 135.325ZM15.6612 127.882C15.6371 124.986 16.1191 122.494 17.0749 120.381L15.2526 119.556C14.1551 121.983 13.6353 124.772 13.6612 127.899L15.6612 127.882ZM17.0732 120.384C18.0403 118.269 19.4028 116.646 21.1563 115.48L20.049 113.815C17.96 115.203 16.3632 117.128 15.2543 119.553L17.0732 120.384ZM21.1506 115.484C22.8998 114.338 25.0018 113.736 27.4986 113.715L27.482 111.715C24.6608 111.739 22.1711 112.424 20.0547 113.811L21.1506 115.484ZM27.4986 113.715L49.8615 113.53L49.8449 111.53L27.482 111.715L27.4986 113.715ZM48.8532 112.538L48.9318 122.015L50.9318 121.998L50.8531 112.521L48.8532 112.538ZM49.9235 121.007L28.3788 121.185L28.3954 123.185L49.9401 123.007L49.9235 121.007ZM28.3788 121.185C27.1466 121.196 26.0116 121.479 24.9996 122.057L25.9912 123.794C26.6757 123.403 27.4685 123.193 28.3954 123.185L28.3788 121.185ZM24.9946 122.06C24.0014 122.634 23.2189 123.43 22.6608 124.432L24.4083 125.405C24.7908 124.718 25.3155 124.185 25.9962 123.791L24.9946 122.06ZM22.6581 124.437C22.0971 125.459 21.8326 126.599 21.8428 127.831L23.8427 127.814C23.835 126.887 24.0317 126.091 24.4111 125.4L22.6581 124.437ZM21.8428 127.831C21.8531 129.072 22.1356 130.21 22.7171 131.215L24.4482 130.213C24.0613 129.545 23.8505 128.755 23.8427 127.814L21.8428 127.831ZM22.7171 131.215C23.2918 132.208 24.0873 132.991 25.0899 133.549L26.0627 131.801C25.3756 131.419 24.8421 130.894 24.4482 130.213L22.7171 131.215ZM25.0949 133.551C26.1165 134.112 27.256 134.377 28.4881 134.367L28.4715 132.367C27.5447 132.374 26.7485 132.178 26.0576 131.798L25.0949 133.551ZM28.4881 134.367L50.0329 134.188L50.0163 132.188L28.4715 132.367L28.4881 134.367ZM42.4965 146.278L42.4882 145.278L41.4883 145.286L41.4966 146.286L42.4965 146.278ZM50.1326 146.215L51.1326 146.206L51.1243 145.206L50.1243 145.215L50.1326 146.215ZM50.3844 176.554L50.3927 177.554L51.3926 177.546L51.3843 176.546L50.3844 176.554ZM42.7483 176.618L41.7483 176.626L41.7566 177.626L42.7565 177.618L42.7483 176.618ZM42.6611 166.118L43.6611 166.11L43.6528 165.11L42.6528 165.118L42.6611 166.118ZM15.3894 166.344L14.3894 166.353L14.3977 167.353L15.3976 167.344L15.3894 166.344ZM15.3119 157.004L15.3036 156.004L14.3036 156.012L14.3119 157.012L15.3119 157.004ZM42.5836 156.778L42.5919 157.777L43.5919 157.769L43.5836 156.769L42.5836 156.778ZM42.5048 147.278L50.1409 147.214L50.1243 145.215L42.4882 145.278L42.5048 147.278ZM49.1327 146.223L49.3844 176.563L51.3843 176.546L51.1326 146.206L49.1327 146.223ZM50.3761 175.554L42.74 175.618L42.7565 177.618L50.3927 177.554L50.3761 175.554ZM43.7482 176.609L43.6611 166.11L41.6612 166.126L41.7483 176.626L43.7482 176.609ZM42.6528 165.118L15.3811 165.344L15.3976 167.344L42.6694 167.118L42.6528 165.118ZM16.3893 166.336L16.3118 156.995L14.3119 157.012L14.3894 166.353L16.3893 166.336ZM15.3202 158.004L42.5919 157.777L42.5753 155.778L15.3036 156.004L15.3202 158.004ZM43.5836 156.769L43.4965 146.27L41.4966 146.286L41.5837 156.786L43.5836 156.769ZM50.4933 189.683L51.4932 189.675L51.4849 188.675L50.485 188.683L50.4933 189.683ZM50.5911 201.478L50.9784 202.4L51.5967 202.141L51.5911 201.47L50.5911 201.478ZM30.8864 209.756L30.4991 208.834L29.8809 209.093L29.8864 209.764L30.8864 209.756ZM30.8898 210.165L29.8898 210.173L29.8954 210.844L30.5179 211.093L30.8898 210.165ZM50.7292 218.114L51.7291 218.106L51.7236 217.435L51.1011 217.186L50.7292 218.114ZM50.827 229.909L50.8353 230.909L51.8353 230.901L51.827 229.901L50.827 229.909ZM15.9191 230.199L14.9192 230.207L14.9275 231.207L15.9274 231.199L15.9191 230.199ZM15.8422 220.926L15.8339 219.926L14.8339 219.935L14.8422 220.935L15.8422 220.926ZM36.0233 220.759L36.0316 221.759L37.0316 221.751L37.0233 220.751L36.0233 220.759ZM36.0211 220.486L37.021 220.478L37.0154 219.795L36.377 219.552L36.0211 220.486ZM16.0482 212.879L15.0482 212.887L15.0539 213.57L15.6922 213.813L16.0482 212.879ZM16.0018 207.288L15.6325 206.359L14.9961 206.612L15.0018 207.296L16.0018 207.288ZM35.9821 199.349L36.3513 200.279L36.9877 200.026L36.982 199.341L35.9821 199.349ZM35.9798 199.077L36.9798 199.068L36.9715 198.068L35.9715 198.077L35.9798 199.077ZM15.6623 199.245L14.6624 199.254L14.6706 200.253L15.6706 200.245L15.6623 199.245ZM15.5854 189.973L15.5771 188.973L14.5771 188.981L14.5854 189.981L15.5854 189.973ZM49.4933 189.691L49.5912 201.487L51.5911 201.47L51.4932 189.675L49.4933 189.691ZM50.2039 200.556L30.4991 208.834L31.2737 210.678L50.9784 202.4L50.2039 200.556ZM29.8864 209.764L29.8898 210.173L31.8898 210.156L31.8864 209.747L29.8864 209.764ZM30.5179 211.093L50.3572 219.042L51.1011 217.186L31.2617 209.236L30.5179 211.093ZM49.7292 218.122L49.8271 229.917L51.827 229.901L51.7291 218.106L49.7292 218.122ZM50.8187 228.909L15.9108 229.199L15.9274 231.199L50.8353 230.909L50.8187 228.909ZM16.9191 230.19L16.8422 220.918L14.8422 220.935L14.9192 230.207L16.9191 230.19ZM15.8505 221.926L36.0316 221.759L36.015 219.759L15.8339 219.926L15.8505 221.926ZM37.0233 220.751L37.021 220.478L35.0211 220.494L35.0234 220.767L37.0233 220.751ZM36.377 219.552L16.4041 211.944L15.6922 213.813L35.6651 221.421L36.377 219.552ZM17.0481 212.871L17.0018 207.28L15.0018 207.296L15.0482 212.887L17.0481 212.871ZM16.371 208.217L36.3513 200.279L35.6128 198.42L15.6325 206.359L16.371 208.217ZM36.982 199.341L36.9798 199.068L34.9798 199.085L34.9821 199.358L36.982 199.341ZM35.9715 198.077L15.654 198.245L15.6706 200.245L35.9881 200.077L35.9715 198.077ZM16.6623 199.237L16.5854 189.965L14.5854 189.981L14.6624 199.254L16.6623 199.237ZM15.5937 190.973L50.5016 190.683L50.485 188.683L15.5771 188.973L15.5937 190.973ZM15.9564 234.69L15.9481 233.69L14.9481 233.698L14.9564 234.698L15.9564 234.69ZM50.8643 234.4L51.8642 234.392L51.856 233.392L50.856 233.4L50.8643 234.4ZM51.073 259.559L51.0813 260.559L52.0813 260.55L52.073 259.55L51.073 259.559ZM43.4369 259.622L42.4369 259.63L42.4452 260.63L43.4452 260.622L43.4369 259.622ZM43.3068 243.941L44.3068 243.932L44.2985 242.932L43.2985 242.941L43.3068 243.941ZM37.307 243.99L37.2987 242.991L36.2988 242.999L36.307 243.999L37.307 243.99ZM37.4264 258.376L37.4347 259.376L38.4346 259.368L38.4263 258.368L37.4264 258.376ZM29.7903 258.44L28.7903 258.448L28.7986 259.448L29.7986 259.44L29.7903 258.44ZM29.6709 244.054L30.6709 244.046L30.6626 243.046L29.6626 243.054L29.6709 244.054ZM23.6711 244.104L23.6628 243.104L22.6629 243.112L22.6712 244.112L23.6711 244.104ZM23.8007 259.717L23.809 260.717L24.8089 260.708L24.8006 259.708L23.8007 259.717ZM16.1646 259.78L15.1646 259.788L15.1729 260.788L16.1729 260.78L16.1646 259.78ZM15.9647 235.69L50.8726 235.4L50.856 233.4L15.9481 233.69L15.9647 235.69ZM49.8643 234.409L50.073 259.567L52.073 259.55L51.8642 234.392L49.8643 234.409ZM51.0647 258.559L43.4286 258.622L43.4452 260.622L51.0813 260.559L51.0647 258.559ZM44.4369 259.614L44.3068 243.932L42.3068 243.949L42.4369 259.63L44.4369 259.614ZM43.2985 242.941L37.2987 242.991L37.3153 244.99L43.3151 244.941L43.2985 242.941ZM36.307 243.999L36.4264 258.385L38.4263 258.368L38.307 243.982L36.307 243.999ZM37.4181 257.376L29.782 257.44L29.7986 259.44L37.4347 259.376L37.4181 257.376ZM30.7902 258.431L30.6709 244.046L28.6709 244.062L28.7903 258.448L30.7902 258.431ZM29.6626 243.054L23.6628 243.104L23.6794 245.104L29.6792 245.054L29.6626 243.054ZM22.6712 244.112L22.8007 259.725L24.8006 259.708L24.6711 244.095L22.6712 244.112ZM23.7924 258.717L16.1563 258.78L16.1729 260.78L23.809 260.717L23.7924 258.717ZM17.1645 259.772L16.9564 234.682L14.9564 234.698L15.1646 259.788L17.1645 259.772Z" fill="#4258FF" mask="url(#path-1-outside-1_5_270)"/>
<mask id="path-3-outside-2_5_270" maskUnits="userSpaceOnUse" x="181.991" y="2.09142" width="41.1557" height="260.315" fill="black">
<rect fill="white" x="181.991" y="2.09142" width="41.1557" height="260.315"/>
<path d="M184.093 14.7161L184.009 4.48922L219.012 15.7219L219.12 28.676L184.307 40.488L184.222 30.2611L209.454 22.4151L209.451 22.1424L184.093 14.7161ZM197.85 12.6929L198.009 31.9195L190.919 31.9783L190.759 12.7517L197.85 12.6929ZM184.335 43.8501L219.243 43.5605L219.369 58.6963C219.391 61.3553 219.051 63.5912 218.35 65.4038C217.65 67.2279 216.65 68.6056 215.35 69.5368C214.051 70.4795 212.516 70.9581 210.743 70.9728C209.459 70.9835 208.286 70.7091 207.225 70.1497C206.163 69.6017 205.27 68.825 204.546 67.8196C203.833 66.8141 203.335 65.6364 203.051 64.2864L202.71 64.2893C202.666 65.7897 202.296 67.1564 201.602 68.3895C200.919 69.6225 199.967 70.6077 198.746 71.3451C197.536 72.0824 196.107 72.4579 194.459 72.4716C192.55 72.4875 190.847 72.0016 189.35 71.014C187.854 70.0377 186.672 68.6384 185.804 66.816C184.937 64.9935 184.492 62.8153 184.471 60.2813L184.335 43.8501ZM191.982 53.2642L192.018 57.6959C192.032 59.2868 192.337 60.4774 192.934 61.268C193.543 62.0584 194.433 62.4488 195.603 62.4391C196.422 62.4323 197.113 62.239 197.678 61.8593C198.243 61.4796 198.671 60.942 198.96 60.2464C199.25 59.5621 199.391 58.737 199.383 57.7712L199.345 53.2031L191.982 53.2642ZM205.208 53.1545L205.241 57.0407C205.248 57.8702 205.384 58.6021 205.651 59.2363C205.918 59.8704 206.297 60.3616 206.788 60.7098C207.291 61.0693 207.901 61.2461 208.617 61.2401C209.696 61.2312 210.517 60.838 211.078 60.0606C211.652 59.2831 211.933 58.3034 211.923 57.1217L211.89 53.0991L205.208 53.1545ZM202.336 109.584C198.449 109.616 195.165 108.887 192.482 107.398C189.81 105.909 187.777 103.886 186.38 101.329C184.995 98.7726 184.29 95.9147 184.264 92.7558C184.237 89.5741 184.901 86.6935 186.254 84.114C187.62 81.5457 189.625 79.4949 192.272 77.9615C194.93 76.4394 198.19 75.6624 202.054 75.6303C205.94 75.5981 209.219 76.3209 211.89 77.7988C214.573 79.2879 216.607 81.3052 217.992 83.8506C219.388 86.4073 220.1 89.2765 220.126 92.4582C220.152 95.6172 219.488 98.4865 218.135 101.066C216.793 103.645 214.793 105.702 212.135 107.235C209.488 108.769 206.222 109.551 202.336 109.584ZM202.255 99.834C204.346 99.8167 206.105 99.5237 207.532 98.955C208.97 98.3976 210.054 97.5761 210.784 96.4904C211.525 95.4161 211.889 94.0948 211.876 92.5267C211.863 90.9585 211.477 89.6378 210.718 88.5646C209.971 87.5025 208.873 86.6991 207.426 86.1543C205.989 85.6207 204.226 85.3626 202.135 85.38C200.044 85.3973 198.279 85.6847 196.841 86.2421C195.414 86.8108 194.329 87.6323 193.588 88.7067C192.859 89.7923 192.5 91.1192 192.513 92.6873C192.526 94.2555 192.907 95.5705 193.654 96.6325C194.413 97.7058 195.511 98.5092 196.947 99.0428C198.395 99.5876 200.164 99.8514 202.255 99.834ZM219.997 134.482L220.076 143.959L197.713 144.145C195.054 144.167 192.748 143.549 190.794 142.293C188.852 141.047 187.343 139.299 186.267 137.046C185.203 134.793 184.659 132.173 184.634 129.184C184.609 126.173 185.11 123.532 186.137 121.263C187.175 118.992 188.654 117.219 190.575 115.941C192.508 114.675 194.804 114.031 197.463 114.009L219.826 113.824L219.905 123.301L198.36 123.479C197.28 123.488 196.316 123.735 195.468 124.219C194.631 124.704 193.978 125.368 193.507 126.213C193.037 127.069 192.807 128.037 192.816 129.116C192.825 130.207 193.071 131.171 193.555 132.008C194.04 132.845 194.704 133.499 195.549 133.969C196.405 134.439 197.373 134.67 198.453 134.661L219.997 134.482ZM212.469 147.572L220.105 147.509L220.357 177.848L212.721 177.912L212.634 167.412L185.362 167.638L185.285 158.298L212.556 158.072L212.469 147.572ZM220.466 190.977L220.564 202.772L200.859 211.05L200.863 211.459L220.702 219.408L220.8 231.203L185.892 231.493L185.815 222.22L205.996 222.053L205.994 221.78L186.021 214.173L185.975 208.582L205.955 200.643L205.953 200.371L185.635 200.539L185.558 191.267L220.466 190.977ZM185.929 235.984L220.837 235.694L221.046 260.853L213.41 260.916L213.28 245.235L207.28 245.285L207.399 259.67L199.763 259.734L199.644 245.348L193.644 245.398L193.773 261.011L186.137 261.074L185.929 235.984Z"/>
</mask>
<path d="M184.093 14.7161L183.093 14.7244L183.1 15.4671L183.812 15.6758L184.093 14.7161ZM184.009 4.48922L184.314 3.53704L182.997 3.11442L183.009 4.49751L184.009 4.48922ZM219.012 15.7219L220.012 15.7136L220.006 14.9907L219.318 14.7698L219.012 15.7219ZM219.12 28.676L219.441 29.623L220.125 29.3907L220.119 28.6677L219.12 28.676ZM184.307 40.488L183.307 40.4963L183.319 41.8794L184.629 41.435L184.307 40.488ZM184.222 30.2611L183.925 29.3062L183.216 29.5267L183.222 30.2694L184.222 30.2611ZM209.454 22.4151L209.751 23.37L210.46 23.1495L210.454 22.4068L209.454 22.4151ZM209.451 22.1424L210.451 22.1341L210.445 21.3914L209.732 21.1827L209.451 22.1424ZM197.85 12.6929L198.85 12.6846L198.841 11.6846L197.842 11.6929L197.85 12.6929ZM198.009 31.9195L198.018 32.9194L199.018 32.9111L199.009 31.9112L198.009 31.9195ZM190.919 31.9783L189.919 31.9866L189.927 32.9866L190.927 32.9783L190.919 31.9783ZM190.759 12.7517L190.751 11.7517L189.751 11.76L189.759 12.76L190.759 12.7517ZM185.093 14.7078L185.009 4.48092L183.009 4.49751L183.093 14.7244L185.093 14.7078ZM183.703 5.44139L218.706 16.6741L219.318 14.7698L184.314 3.53704L183.703 5.44139ZM218.012 15.7302L218.12 28.6843L220.119 28.6677L220.012 15.7136L218.012 15.7302ZM218.798 27.7291L183.986 39.541L184.629 41.435L219.441 29.623L218.798 27.7291ZM185.307 40.4797L185.222 30.2528L183.222 30.2694L183.307 40.4963L185.307 40.4797ZM184.519 31.216L209.751 23.37L209.157 21.4602L183.925 29.3062L184.519 31.216ZM210.454 22.4068L210.451 22.1341L208.451 22.1507L208.454 22.4234L210.454 22.4068ZM209.732 21.1827L184.374 13.7564L183.812 15.6758L209.17 23.1021L209.732 21.1827ZM196.85 12.7011L197.009 31.9278L199.009 31.9112L198.85 12.6846L196.85 12.7011ZM198.001 30.9195L190.91 30.9783L190.927 32.9783L198.018 32.9194L198.001 30.9195ZM191.919 31.97L191.759 12.7434L189.759 12.76L189.919 31.9866L191.919 31.97ZM190.767 13.7516L197.858 13.6928L197.842 11.6929L190.751 11.7517L190.767 13.7516ZM184.335 43.8501L184.327 42.8501L183.327 42.8584L183.335 43.8584L184.335 43.8501ZM219.243 43.5605L220.243 43.5522L220.235 42.5522L219.235 42.5605L219.243 43.5605ZM218.35 65.4038L217.418 65.0432L217.417 65.0452L218.35 65.4038ZM215.35 69.5368L214.768 68.7241L214.763 68.7275L215.35 69.5368ZM207.225 70.1497L207.691 69.265L207.683 69.2612L207.225 70.1497ZM204.546 67.8196L203.73 68.398L203.735 68.4041L204.546 67.8196ZM203.051 64.2864L204.029 64.0806L203.861 63.2797L203.042 63.2865L203.051 64.2864ZM202.71 64.2892L202.702 63.2893L201.739 63.2973L201.71 64.2597L202.71 64.2892ZM201.602 68.3895L200.73 67.8988L200.727 67.9049L201.602 68.3895ZM198.746 71.3451L198.229 70.4891L198.225 70.4912L198.746 71.3451ZM189.35 71.014L189.901 70.1792L189.897 70.1764L189.35 71.014ZM185.804 66.816L186.707 66.3862L185.804 66.816ZM191.982 53.2642L191.973 52.2643L190.973 52.2726L190.982 53.2725L191.982 53.2642ZM192.934 61.268L192.137 61.871L192.142 61.8782L192.934 61.268ZM198.96 60.2464L198.039 59.8564L198.037 59.8619L198.96 60.2464ZM199.345 53.2031L200.345 53.1949L200.337 52.1949L199.337 52.2032L199.345 53.2031ZM205.208 53.1545L205.2 52.1545L204.2 52.1628L204.209 53.1628L205.208 53.1545ZM205.651 59.2363L204.729 59.6238L204.729 59.6238L205.651 59.2363ZM206.788 60.7098L207.37 59.8962L207.366 59.8938L206.788 60.7098ZM211.078 60.0606L210.274 59.4672L210.268 59.4749L211.078 60.0606ZM211.89 53.0991L212.89 53.0908L212.882 52.0908L211.882 52.0991L211.89 53.0991ZM184.343 44.85L219.251 44.5604L219.235 42.5605L184.327 42.8501L184.343 44.85ZM218.243 43.5688L218.369 58.7046L220.369 58.688L220.243 43.5522L218.243 43.5688ZM218.369 58.7046C218.39 61.2809 218.06 63.3828 217.418 65.0432L219.283 65.7645C220.043 63.7995 220.391 61.4297 220.369 58.688L218.369 58.7046ZM217.417 65.0452C216.77 66.7278 215.876 67.9297 214.768 68.7241L215.933 70.3496C217.423 69.2814 218.529 67.7281 219.284 65.7625L217.417 65.0452ZM214.763 68.7275C213.65 69.5351 212.322 69.9597 210.735 69.9729L210.751 71.9728C212.709 71.9566 214.453 71.4238 215.938 70.3462L214.763 68.7275ZM210.735 69.9729C209.604 69.9823 208.596 69.742 207.691 69.2651L206.758 71.0344C207.976 71.6762 209.314 71.9847 210.751 71.9728L210.735 69.9729ZM207.683 69.2612C206.767 68.7881 205.993 68.1177 205.357 67.2351L203.735 68.4041C204.547 69.5323 205.559 70.4153 206.766 71.0383L207.683 69.2612ZM205.362 67.2412C204.737 66.3601 204.288 65.3125 204.029 64.0806L202.072 64.4922C202.381 65.9602 202.929 67.2682 203.73 68.398L205.362 67.2412ZM203.042 63.2865L202.702 63.2893L202.718 65.2892L203.059 65.2864L203.042 63.2865ZM201.71 64.2597C201.67 65.6084 201.341 66.8154 200.73 67.8988L202.473 68.8802C203.252 67.4975 203.661 65.9709 203.709 64.3188L201.71 64.2597ZM200.727 67.9049C200.13 68.983 199.302 69.8409 198.229 70.4891L199.262 72.2011C200.631 71.3745 201.708 70.2619 202.477 68.874L200.727 67.9049ZM198.225 70.4912C197.193 71.12 195.948 71.4592 194.451 71.4717L194.468 73.4716C196.266 73.4567 197.878 73.0449 199.266 72.199L198.225 70.4912ZM194.451 71.4717C192.727 71.486 191.221 71.0503 189.901 70.1793L188.8 71.8486C190.473 72.9528 192.373 73.489 194.468 73.4716L194.451 71.4717ZM189.897 70.1764C188.573 69.3132 187.506 68.0645 186.707 66.3862L184.901 67.2457C185.837 69.2123 187.134 70.7622 188.804 71.8515L189.897 70.1764ZM186.707 66.3862C185.916 64.7247 185.492 62.6974 185.471 60.273L183.471 60.2896C183.493 62.9333 183.957 65.2624 184.901 67.2457L186.707 66.3862ZM185.471 60.273L185.335 43.8418L183.335 43.8584L183.471 60.2896L185.471 60.273ZM190.982 53.2725L191.018 57.7042L193.018 57.6876L192.982 53.2559L190.982 53.2725ZM191.018 57.7042C191.032 59.3897 191.352 60.8331 192.137 61.8709L193.732 60.665C193.322 60.1218 193.031 59.1838 193.018 57.6876L191.018 57.7042ZM192.142 61.8782C192.977 62.9615 194.189 63.4508 195.612 63.439L195.595 61.4391C194.677 61.4467 194.11 61.1553 193.727 60.6577L192.142 61.8782ZM195.612 63.439C196.586 63.4309 197.478 63.1986 198.236 62.6893L197.12 61.0293C196.748 61.2794 196.257 61.4336 195.595 61.4391L195.612 63.439ZM198.236 62.6893C198.981 62.1886 199.527 61.4875 199.883 60.6308L198.037 59.8619C197.815 60.3965 197.505 60.7706 197.12 61.0293L198.236 62.6893ZM199.881 60.6363C200.238 59.7945 200.392 58.8263 200.383 57.7629L198.383 57.7795C198.39 58.6478 198.263 59.3298 198.039 59.8564L199.881 60.6363ZM200.383 57.7629L200.345 53.1949L198.345 53.2114L198.383 57.7795L200.383 57.7629ZM199.337 52.2032L191.973 52.2643L191.99 54.2642L199.353 54.2031L199.337 52.2032ZM204.209 53.1628L204.241 57.049L206.241 57.0324L206.208 53.1462L204.209 53.1628ZM204.241 57.049C204.249 57.9827 204.403 58.8476 204.729 59.6238L206.573 58.8487C206.366 58.3566 206.247 57.7578 206.241 57.0324L204.241 57.049ZM204.729 59.6238C205.058 60.4051 205.546 61.055 206.21 61.5258L207.366 59.8938C207.048 59.6682 206.778 59.3358 206.573 58.8487L204.729 59.6238ZM206.207 61.5234C206.908 62.0245 207.732 62.2475 208.625 62.2401L208.608 60.2402C208.069 60.2446 207.675 60.1141 207.37 59.8962L206.207 61.5234ZM208.625 62.2401C209.977 62.2289 211.116 61.7166 211.889 60.6463L210.268 59.4749C209.918 59.9594 209.416 60.2335 208.608 60.2402L208.625 62.2401ZM211.883 60.6539C212.611 59.6663 212.935 58.4621 212.923 57.1134L210.923 57.13C210.932 58.1448 210.692 58.8999 210.274 59.4672L211.883 60.6539ZM212.923 57.1134L212.89 53.0908L210.89 53.1074L210.923 57.13L212.923 57.1134ZM211.882 52.0991L205.2 52.1545L205.217 54.1545L211.898 54.099L211.882 52.0991ZM192.482 107.398L191.995 108.272L191.997 108.273L192.482 107.398ZM186.38 101.329L185.501 101.806L185.503 101.809L186.38 101.329ZM186.254 84.114L185.371 83.6446L185.369 83.6493L186.254 84.114ZM192.272 77.9615L191.775 77.0938L191.77 77.0963L192.272 77.9615ZM211.89 77.7988L212.376 76.9244L212.375 76.9238L211.89 77.7988ZM217.992 83.8506L217.114 84.3285L217.114 84.3299L217.992 83.8506ZM218.135 101.066L217.249 100.601L217.248 100.604L218.135 101.066ZM212.135 107.235L211.635 106.369L211.633 106.37L212.135 107.235ZM207.532 98.955L207.17 98.0225L207.162 98.026L207.532 98.955ZM210.784 96.4904L209.961 95.9226L209.954 95.9326L210.784 96.4904ZM210.718 88.5646L209.901 89.1401L209.902 89.1419L210.718 88.5646ZM207.426 86.1543L207.778 85.2184L207.774 85.2169L207.426 86.1543ZM196.841 86.2421L196.479 85.3096L196.47 85.3131L196.841 86.2421ZM193.588 88.7067L192.765 88.1388L192.758 88.1489L193.588 88.7067ZM193.654 96.6325L192.836 97.2081L192.838 97.2099L193.654 96.6325ZM196.947 99.0428L197.299 98.1069L197.295 98.1054L196.947 99.0428ZM202.327 108.584C198.569 108.615 195.464 107.91 192.967 106.524L191.997 108.273C194.866 109.865 198.33 110.617 202.344 110.584L202.327 108.584ZM192.969 106.525C190.454 105.123 188.559 103.233 187.258 100.85L185.503 101.809C186.994 104.539 189.167 106.695 191.995 108.272L192.969 106.525ZM187.26 100.853C185.959 98.4523 185.289 95.7574 185.264 92.7475L183.264 92.7641C183.291 96.0721 184.032 99.0929 185.501 101.806L187.26 100.853ZM185.264 92.7475C185.238 89.7149 185.87 86.9991 187.14 84.5786L185.369 83.6493C183.932 86.3878 183.236 89.4332 183.264 92.7641L185.264 92.7475ZM187.137 84.5833C188.41 82.1888 190.28 80.2715 192.773 78.8268L191.77 77.0963C188.971 78.7183 186.829 80.9026 185.371 83.6446L187.137 84.5833ZM192.769 78.8293C195.244 77.412 198.326 76.6613 202.062 76.6303L202.046 74.6303C198.055 74.6635 194.616 75.4669 191.775 77.0938L192.769 78.8293ZM202.062 76.6303C205.822 76.5991 208.921 77.299 211.406 78.6738L212.375 76.9238C209.517 75.3428 206.058 74.5971 202.046 74.6303L202.062 76.6303ZM211.405 78.6731C213.932 80.0758 215.825 81.9599 217.114 84.3285L218.87 83.3727C217.389 80.6505 215.214 78.5001 212.376 76.9244L211.405 78.6731ZM217.114 84.3299C218.425 86.729 219.101 89.434 219.126 92.4665L221.126 92.4499C221.098 89.1191 220.352 86.0856 218.87 83.3713L217.114 84.3299ZM219.126 92.4665C219.151 95.4751 218.52 98.1797 217.249 100.601L219.02 101.531C220.457 98.7932 221.153 95.7593 221.126 92.4499L219.126 92.4665ZM217.248 100.604C215.998 103.005 214.137 104.925 211.635 106.369L212.634 108.101C215.448 106.478 217.587 104.286 219.022 101.528L217.248 100.604ZM211.633 106.37C209.172 107.796 206.086 108.553 202.327 108.584L202.344 110.584C206.357 110.55 209.804 109.741 212.636 108.101L211.633 106.37ZM202.263 100.834C204.436 100.816 206.326 100.512 207.902 99.8839L207.162 98.026C205.883 98.5355 204.255 98.8174 202.246 98.8341L202.263 100.834ZM207.893 99.8874C209.487 99.2697 210.751 98.3326 211.614 97.0482L209.954 95.9326C209.358 96.8195 208.453 97.5255 207.17 98.0225L207.893 99.8874ZM211.607 97.0582C212.487 95.7828 212.891 94.2499 212.876 92.5184L210.876 92.535C210.888 93.9397 210.563 95.0493 209.961 95.9226L211.607 97.0582ZM212.876 92.5184C212.862 90.7865 212.433 89.2571 211.535 87.9872L209.902 89.1419C210.522 90.0186 210.865 91.1306 210.876 92.535L212.876 92.5184ZM211.536 87.989C210.653 86.7336 209.377 85.8201 207.778 85.2184L207.073 87.0902C208.37 87.5781 209.289 88.2715 209.901 89.1401L211.536 87.989ZM207.774 85.2169C206.19 84.6286 204.298 84.362 202.127 84.38L202.143 86.3799C204.154 86.3633 205.788 86.6129 207.077 87.0917L207.774 85.2169ZM202.127 84.38C199.955 84.398 198.063 84.6961 196.479 85.3097L197.202 87.1746C198.496 86.6733 200.133 86.3966 202.143 86.3799L202.127 84.38ZM196.47 85.3131C194.893 85.9417 193.637 86.875 192.765 88.1389L194.411 89.2745C195.022 88.3896 195.934 87.6799 197.211 87.1711L196.47 85.3131ZM192.758 88.1489C191.895 89.4327 191.499 90.9668 191.513 92.6956L193.513 92.679C193.502 91.2716 193.822 90.1519 194.418 89.2645L192.758 88.1489ZM191.513 92.6956C191.528 94.4241 191.949 95.948 192.836 97.2081L194.472 96.057C193.864 95.1931 193.525 94.0868 193.513 92.679L191.513 92.6956ZM192.838 97.2099C193.731 98.4735 195.006 99.3885 196.599 99.9802L197.295 98.1054C196.015 97.63 195.095 96.9381 194.471 96.0552L192.838 97.2099ZM196.595 99.9787C198.19 100.579 200.09 100.852 202.263 100.834L202.246 98.8341C200.238 98.8507 198.599 98.5961 197.299 98.1069L196.595 99.9787ZM219.997 134.482L220.997 134.474L220.989 133.474L219.989 133.482L219.997 134.482ZM220.076 143.959L220.084 144.959L221.084 144.951L221.076 143.951L220.076 143.959ZM190.794 142.293L191.335 141.452L191.334 141.451L190.794 142.293ZM186.267 137.046L185.363 137.473L185.365 137.477L186.267 137.046ZM186.137 121.263L185.227 120.847L185.225 120.85L186.137 121.263ZM190.575 115.941L190.028 115.105L190.022 115.109L190.575 115.941ZM219.826 113.824L220.826 113.815L220.818 112.815L219.818 112.824L219.826 113.824ZM219.905 123.301L219.913 124.301L220.913 124.292L220.905 123.292L219.905 123.301ZM195.468 124.219L194.972 123.351L194.967 123.354L195.468 124.219ZM193.507 126.213L192.634 125.727L192.631 125.732L193.507 126.213ZM193.555 132.008L192.69 132.509L193.555 132.008ZM195.549 133.969L195.063 134.843L195.068 134.845L195.549 133.969ZM218.997 134.49L219.076 143.967L221.076 143.951L220.997 134.474L218.997 134.49ZM220.068 142.959L197.705 143.145L197.721 145.145L220.084 144.959L220.068 142.959ZM197.705 143.145C195.212 143.165 193.102 142.588 191.335 141.452L190.253 143.134C192.393 144.51 194.897 145.168 197.721 145.145L197.705 143.145ZM191.334 141.451C189.561 140.314 188.172 138.714 187.17 136.615L185.365 137.477C186.514 139.883 188.143 141.781 190.254 143.135L191.334 141.451ZM187.172 136.619C186.18 134.521 185.658 132.048 185.634 129.176L183.634 129.193C183.66 132.298 184.226 135.066 185.363 137.473L187.172 136.619ZM185.634 129.176C185.61 126.28 186.092 123.788 187.048 121.675L185.225 120.85C184.128 123.277 183.608 126.066 183.634 129.193L185.634 129.176ZM187.046 121.678C188.013 119.563 189.376 117.94 191.129 116.774L190.022 115.109C187.933 116.498 186.336 118.422 185.227 120.847L187.046 121.678ZM191.123 116.778C192.873 115.632 194.975 115.03 197.471 115.009L197.455 113.009C194.634 113.033 192.144 113.719 190.028 115.105L191.123 116.778ZM197.471 115.009L219.834 114.824L219.818 112.824L197.455 113.009L197.471 115.009ZM218.826 113.832L218.905 123.309L220.905 123.292L220.826 113.815L218.826 113.832ZM219.896 122.301L198.352 122.479L198.368 124.479L219.913 124.301L219.896 122.301ZM198.352 122.479C197.119 122.49 195.984 122.773 194.972 123.351L195.964 125.088C196.649 124.697 197.441 124.487 198.368 124.479L198.352 122.479ZM194.967 123.354C193.974 123.928 193.192 124.724 192.634 125.727L194.381 126.699C194.764 126.012 195.288 125.479 195.969 125.085L194.967 123.354ZM192.631 125.732C192.07 126.753 191.805 127.893 191.816 129.125L193.816 129.108C193.808 128.181 194.005 127.385 194.384 126.694L192.631 125.732ZM191.816 129.125C191.826 130.366 192.108 131.504 192.69 132.509L194.421 131.507C194.034 130.839 193.823 130.049 193.816 129.108L191.816 129.125ZM192.69 132.509C193.265 133.502 194.06 134.285 195.063 134.843L196.035 133.095C195.348 132.713 194.815 132.188 194.421 131.507L192.69 132.509ZM195.068 134.845C196.089 135.406 197.229 135.671 198.461 135.661L198.444 133.661C197.518 133.669 196.721 133.472 196.03 133.092L195.068 134.845ZM198.461 135.661L220.006 135.482L219.989 133.482L198.444 133.661L198.461 135.661ZM212.469 147.572L212.461 146.572L211.461 146.58L211.469 147.58L212.469 147.572ZM220.105 147.509L221.105 147.5L221.097 146.5L220.097 146.509L220.105 147.509ZM220.357 177.848L220.365 178.848L221.365 178.84L221.357 177.84L220.357 177.848ZM212.721 177.912L211.721 177.92L211.729 178.92L212.729 178.912L212.721 177.912ZM212.634 167.412L213.634 167.404L213.626 166.404L212.626 166.412L212.634 167.412ZM185.362 167.638L184.362 167.647L184.37 168.647L185.37 168.638L185.362 167.638ZM185.285 158.298L185.276 157.298L184.276 157.306L184.285 158.306L185.285 158.298ZM212.556 158.072L212.565 159.072L213.565 159.063L213.556 158.063L212.556 158.072ZM212.478 148.572L220.114 148.509L220.097 146.509L212.461 146.572L212.478 148.572ZM219.105 147.517L219.357 177.857L221.357 177.84L221.105 147.5L219.105 147.517ZM220.349 176.848L212.713 176.912L212.729 178.912L220.365 178.848L220.349 176.848ZM213.721 177.904L213.634 167.404L211.634 167.42L211.721 177.92L213.721 177.904ZM212.626 166.412L185.354 166.638L185.37 168.638L212.642 168.412L212.626 166.412ZM186.362 167.63L186.285 158.29L184.285 158.306L184.362 167.647L186.362 167.63ZM185.293 159.298L212.565 159.072L212.548 157.072L185.276 157.298L185.293 159.298ZM213.556 158.063L213.469 147.564L211.469 147.58L211.556 158.08L213.556 158.063ZM220.466 190.977L221.466 190.969L221.458 189.969L220.458 189.977L220.466 190.977ZM220.564 202.772L220.951 203.694L221.569 203.435L221.564 202.764L220.564 202.772ZM200.859 211.05L200.472 210.128L199.854 210.387L199.859 211.058L200.859 211.05ZM200.863 211.459L199.863 211.467L199.868 212.138L200.491 212.387L200.863 211.459ZM220.702 219.408L221.702 219.4L221.696 218.729L221.074 218.48L220.702 219.408ZM220.8 231.203L220.808 232.203L221.808 232.195L221.8 231.195L220.8 231.203ZM185.892 231.493L184.892 231.501L184.9 232.501L185.9 232.493L185.892 231.493ZM185.815 222.22L185.807 221.22L184.807 221.229L184.815 222.229L185.815 222.22ZM205.996 222.053L206.004 223.053L207.004 223.045L206.996 222.045L205.996 222.053ZM205.994 221.78L206.994 221.772L206.988 221.089L206.35 220.846L205.994 221.78ZM186.021 214.173L185.021 214.181L185.027 214.864L185.665 215.107L186.021 214.173ZM185.975 208.582L185.605 207.653L184.969 207.906L184.975 208.59L185.975 208.582ZM205.955 200.643L206.324 201.573L206.961 201.32L206.955 200.635L205.955 200.643ZM205.953 200.371L206.953 200.362L206.944 199.362L205.944 199.371L205.953 200.371ZM185.635 200.539L184.635 200.548L184.643 201.548L185.643 201.539L185.635 200.539ZM185.558 191.267L185.55 190.267L184.55 190.275L184.558 191.275L185.558 191.267ZM219.466 190.986L219.564 202.781L221.564 202.764L221.466 190.969L219.466 190.986ZM220.177 201.85L200.472 210.128L201.246 211.972L220.951 203.694L220.177 201.85ZM199.859 211.058L199.863 211.467L201.863 211.45L201.859 211.041L199.859 211.058ZM200.491 212.387L220.33 220.336L221.074 218.48L201.235 210.531L200.491 212.387ZM219.702 219.416L219.8 231.211L221.8 231.195L221.702 219.4L219.702 219.416ZM220.792 230.203L185.884 230.493L185.9 232.493L220.808 232.203L220.792 230.203ZM186.892 231.484L186.815 222.212L184.815 222.229L184.892 231.501L186.892 231.484ZM185.823 223.22L206.004 223.053L205.988 221.053L185.807 221.22L185.823 223.22ZM206.996 222.045L206.994 221.772L204.994 221.789L204.996 222.061L206.996 222.045ZM206.35 220.846L186.377 213.238L185.665 215.107L205.638 222.715L206.35 220.846ZM187.021 214.165L186.975 208.574L184.975 208.59L185.021 214.181L187.021 214.165ZM186.344 209.512L206.324 201.573L205.586 199.714L185.605 207.653L186.344 209.512ZM206.955 200.635L206.953 200.362L204.953 200.379L204.955 200.652L206.955 200.635ZM205.944 199.371L185.627 199.539L185.643 201.539L205.961 201.371L205.944 199.371ZM186.635 200.531L186.558 191.259L184.558 191.275L184.635 200.548L186.635 200.531ZM185.566 192.267L220.474 191.977L220.458 189.977L185.55 190.267L185.566 192.267ZM185.929 235.984L185.921 234.984L184.921 234.992L184.929 235.992L185.929 235.984ZM220.837 235.694L221.837 235.686L221.829 234.686L220.829 234.695L220.837 235.694ZM221.046 260.853L221.054 261.853L222.054 261.844L222.046 260.844L221.046 260.853ZM213.41 260.916L212.41 260.924L212.418 261.924L213.418 261.916L213.41 260.916ZM213.28 245.235L214.28 245.226L214.271 244.227L213.271 244.235L213.28 245.235ZM207.28 245.285L207.272 244.285L206.272 244.293L206.28 245.293L207.28 245.285ZM207.399 259.67L207.407 260.67L208.407 260.662L208.399 259.662L207.399 259.67ZM199.763 259.734L198.763 259.742L198.771 260.742L199.771 260.734L199.763 259.734ZM199.644 245.348L200.644 245.34L200.635 244.34L199.635 244.348L199.644 245.348ZM193.644 245.398L193.636 244.398L192.636 244.406L192.644 245.406L193.644 245.398ZM193.773 261.011L193.782 262.011L194.782 262.002L194.773 261.002L193.773 261.011ZM186.137 261.074L185.137 261.082L185.146 262.082L186.146 262.074L186.137 261.074ZM185.937 236.984L220.845 236.694L220.829 234.695L185.921 234.984L185.937 236.984ZM219.837 235.703L220.046 260.861L222.046 260.844L221.837 235.686L219.837 235.703ZM221.038 259.853L213.401 259.916L213.418 261.916L221.054 261.853L221.038 259.853ZM214.41 260.908L214.28 245.226L212.28 245.243L212.41 260.924L214.41 260.908ZM213.271 244.235L207.272 244.285L207.288 246.285L213.288 246.235L213.271 244.235ZM206.28 245.293L206.399 259.679L208.399 259.662L208.28 245.276L206.28 245.293ZM207.391 258.67L199.755 258.734L199.771 260.734L207.407 260.67L207.391 258.67ZM200.763 259.725L200.644 245.34L198.644 245.356L198.763 259.742L200.763 259.725ZM199.635 244.348L193.636 244.398L193.652 246.398L199.652 246.348L199.635 244.348ZM192.644 245.406L192.773 261.019L194.773 261.002L194.644 245.389L192.644 245.406ZM193.765 260.011L186.129 260.074L186.146 262.074L193.782 262.011L193.765 260.011ZM187.137 261.066L186.929 235.976L184.929 235.992L185.137 261.082L187.137 261.066Z" fill="#4258FF" fill-opacity="0.2" mask="url(#path-3-outside-2_5_270)"/>
<mask id="path-5-outside-3_5_270" maskUnits="userSpaceOnUse" x="96.0161" y="4.09959" width="41.1557" height="260.315" fill="black">
<rect fill="white" x="96.0161" y="4.09959" width="41.1557" height="260.315"/>
<path d="M135.07 251.789L135.154 262.016L100.151 250.784L100.044 237.83L134.856 226.018L134.941 236.245L109.709 244.091L109.712 244.363L135.07 251.789ZM121.313 253.813L121.154 234.586L128.244 234.527L128.404 253.754L121.313 253.813ZM134.828 222.656L99.92 222.945L99.7945 207.809C99.7724 205.15 100.112 202.914 100.813 201.102C101.514 199.278 102.513 197.9 103.813 196.969C105.112 196.026 106.648 195.547 108.42 195.533C109.704 195.522 110.877 195.796 111.938 196.356C113 196.904 113.893 197.681 114.617 198.686C115.33 199.692 115.828 200.869 116.112 202.219L116.453 202.216C116.498 200.716 116.867 199.349 117.561 198.116C118.244 196.883 119.196 195.898 120.418 195.161C121.627 194.423 123.056 194.048 124.704 194.034C126.613 194.018 128.316 194.504 129.813 195.492C131.309 196.468 132.492 197.867 133.359 199.69C134.226 201.512 134.671 203.69 134.692 206.224L134.828 222.656ZM127.181 213.241L127.145 208.81C127.131 207.219 126.826 206.028 126.229 205.238C125.62 204.447 124.73 204.057 123.56 204.067C122.742 204.073 122.05 204.267 121.485 204.646C120.92 205.026 120.492 205.564 120.203 206.259C119.913 206.944 119.772 207.769 119.78 208.734L119.818 213.302L127.181 213.241ZM113.955 213.351L113.922 209.465C113.915 208.635 113.779 207.904 113.512 207.269C113.245 206.635 112.866 206.144 112.375 205.796C111.872 205.436 111.262 205.26 110.546 205.265C109.467 205.274 108.646 205.668 108.085 206.445C107.511 207.223 107.23 208.202 107.24 209.384L107.273 213.407L113.955 213.351ZM116.827 156.922C120.714 156.89 123.998 157.618 126.681 159.107C129.353 160.597 131.387 162.62 132.783 165.176C134.168 167.733 134.873 170.591 134.899 173.75C134.926 176.932 134.262 179.812 132.909 182.392C131.543 184.96 129.538 187.011 126.891 188.544C124.233 190.066 120.973 190.843 117.109 190.875C113.223 190.908 109.944 190.185 107.273 188.707C104.59 187.218 102.556 185.2 101.171 182.655C99.7748 180.098 99.0635 177.229 99.0371 174.047C99.0109 170.888 99.6746 168.019 101.028 165.44C102.371 162.86 104.371 160.804 107.028 159.27C109.675 157.737 112.941 156.954 116.827 156.922ZM116.908 166.672C114.817 166.689 113.058 166.982 111.631 167.551C110.193 168.108 109.109 168.93 108.379 170.015C107.638 171.09 107.274 172.411 107.287 173.979C107.3 175.547 107.686 176.868 108.445 177.941C109.192 179.003 110.29 179.807 111.738 180.351C113.174 180.885 114.937 181.143 117.028 181.126C119.119 181.108 120.884 180.821 122.322 180.264C123.75 179.695 124.834 178.873 125.575 177.799C126.304 176.713 126.663 175.386 126.65 173.818C126.637 172.25 126.257 170.935 125.509 169.873C124.75 168.8 123.652 167.996 122.216 167.463C120.768 166.918 118.999 166.654 116.908 166.672ZM99.1657 132.024L99.0871 122.547L121.45 122.361C124.109 122.339 126.415 122.956 128.369 124.213C130.311 125.458 131.82 127.207 132.896 129.46C133.96 131.712 134.504 134.333 134.529 137.321C134.554 140.333 134.053 142.973 133.027 145.243C131.989 147.513 130.509 149.287 128.588 150.564C126.655 151.83 124.359 152.474 121.7 152.496L99.3371 152.682L99.2585 143.205L120.803 143.026C121.883 143.017 122.847 142.771 123.695 142.286C124.532 141.802 125.185 141.138 125.656 140.293C126.126 139.437 126.356 138.469 126.348 137.389C126.338 136.298 126.092 135.334 125.608 134.497C125.123 133.661 124.459 133.007 123.614 132.537C122.758 132.066 121.79 131.836 120.71 131.845L99.1657 132.024ZM106.694 118.934L99.0576 118.997L98.8059 88.6572L106.442 88.5938L106.529 99.0934L133.801 98.8672L133.878 108.208L106.607 108.434L106.694 118.934ZM98.697 75.5283L98.5991 63.7333L118.304 55.4559L118.3 55.0468L98.4611 47.0975L98.3633 35.3025L133.271 35.0128L133.348 44.2853L113.167 44.4527L113.169 44.7254L133.142 52.3327L133.188 57.9234L113.208 65.8622L113.21 66.1349L133.528 65.9663L133.605 75.2387L98.697 75.5283ZM133.234 30.5215L98.326 30.8111L98.1173 5.65291L105.753 5.58956L105.883 21.2708L111.883 21.2211L111.764 6.83519L119.4 6.77184L119.519 21.1577L125.519 21.1079L125.39 5.49483L133.026 5.43147L133.234 30.5215Z"/>
</mask>
<path d="M135.07 251.789L136.07 251.781L136.063 251.039L135.351 250.83L135.07 251.789ZM135.154 262.016L134.849 262.969L136.166 263.391L136.154 262.008L135.154 262.016ZM100.151 250.784L99.151 250.792L99.157 251.515L99.8454 251.736L100.151 250.784ZM100.044 237.83L99.7222 236.883L99.0376 237.115L99.0436 237.838L100.044 237.83ZM134.856 226.018L135.856 226.009L135.844 224.626L134.535 225.071L134.856 226.018ZM134.941 236.245L135.238 237.199L135.947 236.979L135.941 236.236L134.941 236.245ZM109.709 244.091L109.413 243.136L108.703 243.356L108.709 244.099L109.709 244.091ZM109.712 244.363L108.712 244.372L108.718 245.114L109.431 245.323L109.712 244.363ZM121.313 253.813L120.313 253.821L120.322 254.821L121.322 254.813L121.313 253.813ZM121.154 234.586L121.145 233.586L120.145 233.594L120.154 234.594L121.154 234.586ZM128.244 234.527L129.244 234.519L129.236 233.519L128.236 233.527L128.244 234.527ZM128.404 253.754L128.412 254.754L129.412 254.746L129.404 253.746L128.404 253.754ZM134.07 251.798L134.155 262.025L136.154 262.008L136.07 251.781L134.07 251.798ZM135.46 261.064L100.457 249.832L99.8454 251.736L134.849 262.969L135.46 261.064ZM101.151 250.775L101.043 237.821L99.0436 237.838L99.151 250.792L101.151 250.775ZM100.365 238.777L135.177 226.965L134.535 225.071L99.7222 236.883L100.365 238.777ZM133.856 226.026L133.941 236.253L135.941 236.236L135.856 226.009L133.856 226.026ZM134.644 235.29L109.413 243.136L110.006 245.045L135.238 237.199L134.644 235.29ZM108.709 244.099L108.712 244.372L110.712 244.355L110.709 244.082L108.709 244.099ZM109.431 245.323L134.789 252.749L135.351 250.83L109.993 243.404L109.431 245.323ZM122.313 253.804L122.154 234.578L120.154 234.594L120.313 253.821L122.313 253.804ZM121.162 235.586L128.253 235.527L128.236 233.527L121.145 233.586L121.162 235.586ZM127.244 234.536L127.404 253.762L129.404 253.746L129.244 234.519L127.244 234.536ZM128.396 252.754L121.305 252.813L121.322 254.813L128.412 254.754L128.396 252.754ZM134.828 222.656L134.836 223.656L135.836 223.647L135.828 222.647L134.828 222.656ZM99.92 222.945L98.9201 222.953L98.9284 223.953L99.9283 223.945L99.92 222.945ZM100.813 201.102L101.745 201.462L101.746 201.46L100.813 201.102ZM103.813 196.969L104.395 197.782L104.4 197.778L103.813 196.969ZM111.938 196.356L111.472 197.241L111.48 197.244L111.938 196.356ZM114.617 198.686L115.433 198.108L115.428 198.102L114.617 198.686ZM116.112 202.219L115.134 202.425L115.302 203.226L116.121 203.219L116.112 202.219ZM116.453 202.216L116.461 203.216L117.424 203.208L117.453 202.246L116.453 202.216ZM117.561 198.116L118.433 198.607L118.436 198.601L117.561 198.116ZM120.418 195.161L120.934 196.017L120.938 196.014L120.418 195.161ZM129.813 195.492L129.262 196.326L129.266 196.329L129.813 195.492ZM133.359 199.69L132.456 200.119L133.359 199.69ZM127.181 213.241L127.19 214.241L128.19 214.233L128.181 213.233L127.181 213.241ZM126.229 205.238L127.026 204.635L127.021 204.627L126.229 205.238ZM120.203 206.259L121.124 206.649L121.126 206.644L120.203 206.259ZM119.818 213.302L118.818 213.311L118.826 214.311L119.826 214.302L119.818 213.302ZM113.955 213.351L113.963 214.351L114.963 214.343L114.955 213.343L113.955 213.351ZM113.512 207.269L114.434 206.882L114.434 206.882L113.512 207.269ZM112.375 205.796L111.793 206.609L111.797 206.612L112.375 205.796ZM108.085 206.445L108.89 207.038L108.895 207.031L108.085 206.445ZM107.273 213.407L106.273 213.415L106.281 214.415L107.281 214.407L107.273 213.407ZM134.82 221.656L99.9117 221.945L99.9283 223.945L134.836 223.656L134.82 221.656ZM100.92 222.937L100.794 207.801L98.7945 207.818L98.9201 222.953L100.92 222.937ZM100.794 207.801C100.773 205.225 101.103 203.123 101.745 201.462L99.88 200.741C99.1202 202.706 98.7718 205.076 98.7945 207.818L100.794 207.801ZM101.746 201.46C102.393 199.778 103.287 198.576 104.395 197.782L103.23 196.156C101.74 197.224 100.634 198.778 99.8792 200.743L101.746 201.46ZM104.4 197.778C105.513 196.97 106.841 196.546 108.428 196.533L108.412 194.533C106.454 194.549 104.71 195.082 103.225 196.159L104.4 197.778ZM108.428 196.533C109.559 196.523 110.567 196.764 111.472 197.241L112.405 195.471C111.187 194.829 109.849 194.521 108.412 194.533L108.428 196.533ZM111.48 197.244C112.396 197.718 113.17 198.388 113.806 199.271L115.428 198.102C114.616 196.973 113.604 196.09 112.397 195.467L111.48 197.244ZM113.801 199.264C114.426 200.146 114.875 201.193 115.134 202.425L117.091 202.013C116.782 200.545 116.234 199.237 115.433 198.108L113.801 199.264ZM116.121 203.219L116.461 203.216L116.445 201.216L116.104 201.219L116.121 203.219ZM117.453 202.246C117.493 200.897 117.823 199.69 118.433 198.607L116.69 197.625C115.911 199.008 115.502 200.535 115.454 202.187L117.453 202.246ZM118.436 198.601C119.033 197.523 119.861 196.665 120.934 196.017L119.901 194.304C118.532 195.131 117.455 196.244 116.686 197.632L118.436 198.601ZM120.938 196.014C121.97 195.386 123.215 195.046 124.712 195.034L124.695 193.034C122.897 193.049 121.285 193.461 119.897 194.307L120.938 196.014ZM124.712 195.034C126.436 195.02 127.942 195.455 129.262 196.326L130.363 194.657C128.69 193.553 126.79 193.017 124.695 193.034L124.712 195.034ZM129.266 196.329C130.59 197.192 131.657 198.441 132.456 200.119L134.262 199.26C133.326 197.293 132.029 195.743 130.359 194.654L129.266 196.329ZM132.456 200.119C133.247 201.781 133.672 203.808 133.692 206.233L135.692 206.216C135.67 203.572 135.206 201.243 134.262 199.26L132.456 200.119ZM133.692 206.233L133.828 222.664L135.828 222.647L135.692 206.216L133.692 206.233ZM128.181 213.233L128.145 208.801L126.145 208.818L126.181 213.25L128.181 213.233ZM128.145 208.801C128.131 207.116 127.811 205.672 127.026 204.635L125.431 205.841C125.841 206.384 126.132 207.322 126.145 208.818L128.145 208.801ZM127.021 204.627C126.186 203.544 124.974 203.055 123.551 203.067L123.568 205.067C124.487 205.059 125.053 205.35 125.436 205.848L127.021 204.627ZM123.551 203.067C122.577 203.075 121.685 203.307 120.927 203.816L122.043 205.476C122.415 205.226 122.906 205.072 123.568 205.067L123.551 203.067ZM120.927 203.816C120.182 204.317 119.636 205.018 119.28 205.875L121.126 206.644C121.349 206.109 121.658 205.735 122.043 205.476L120.927 203.816ZM119.282 205.869C118.925 206.711 118.771 207.679 118.78 208.743L120.78 208.726C120.773 207.858 120.901 207.176 121.124 206.649L119.282 205.869ZM118.78 208.743L118.818 213.311L120.818 213.294L120.78 208.726L118.78 208.743ZM119.826 214.302L127.19 214.241L127.173 212.241L119.81 212.303L119.826 214.302ZM114.955 213.343L114.922 209.457L112.922 209.473L112.955 213.359L114.955 213.343ZM114.922 209.457C114.915 208.523 114.76 207.658 114.434 206.882L112.59 207.657C112.797 208.149 112.916 208.748 112.922 209.473L114.922 209.457ZM114.434 206.882C114.105 206.101 113.617 205.451 112.953 204.98L111.797 206.612C112.115 206.837 112.385 207.17 112.59 207.657L114.434 206.882ZM112.956 204.982C112.255 204.481 111.431 204.258 110.538 204.266L110.555 206.265C111.094 206.261 111.488 206.391 111.793 206.609L112.956 204.982ZM110.538 204.266C109.187 204.277 108.047 204.789 107.274 205.859L108.895 207.031C109.245 206.546 109.747 206.272 110.555 206.265L110.538 204.266ZM107.28 205.852C106.552 206.839 106.228 208.044 106.24 209.392L108.24 209.376C108.231 208.361 108.471 207.606 108.89 207.038L107.28 205.852ZM106.24 209.392L106.273 213.415L108.273 213.398L108.24 209.376L106.24 209.392ZM107.281 214.407L113.963 214.351L113.946 212.351L107.265 212.407L107.281 214.407ZM126.681 159.107L127.168 158.234L127.166 158.233L126.681 159.107ZM132.783 165.176L133.662 164.7L133.66 164.697L132.783 165.176ZM132.909 182.392L133.792 182.861L133.794 182.856L132.909 182.392ZM126.891 188.544L127.388 189.412L127.393 189.409L126.891 188.544ZM107.273 188.707L106.787 189.581L106.789 189.582L107.273 188.707ZM101.171 182.655L102.049 182.177L102.049 182.176L101.171 182.655ZM101.028 165.44L101.914 165.904L101.915 165.901L101.028 165.44ZM107.028 159.27L107.528 160.137L107.53 160.136L107.028 159.27ZM111.631 167.551L111.993 168.483L112.001 168.48L111.631 167.551ZM108.379 170.015L109.202 170.583L109.209 170.573L108.379 170.015ZM108.445 177.941L109.262 177.366L109.261 177.364L108.445 177.941ZM111.738 180.351L111.385 181.287L111.389 181.289L111.738 180.351ZM122.322 180.264L122.684 181.196L122.693 181.192L122.322 180.264ZM125.575 177.799L126.398 178.367L126.405 178.357L125.575 177.799ZM125.509 169.873L126.327 169.298L126.326 169.296L125.509 169.873ZM122.216 167.463L121.864 168.399L121.868 168.4L122.216 167.463ZM116.836 157.922C120.595 157.891 123.699 158.596 126.196 159.982L127.166 158.233C124.297 156.641 120.833 155.889 116.819 155.922L116.836 157.922ZM126.194 159.981C128.71 161.383 130.604 163.273 131.905 165.656L133.66 164.697C132.169 161.966 129.996 159.81 127.168 158.234L126.194 159.981ZM131.904 165.652C133.204 168.053 133.875 170.748 133.9 173.758L135.899 173.742C135.872 170.434 135.131 167.413 133.662 164.7L131.904 165.652ZM133.9 173.758C133.925 176.791 133.293 179.506 132.023 181.927L133.794 182.856C135.231 180.118 135.927 177.072 135.899 173.742L133.9 173.758ZM132.026 181.922C130.753 184.317 128.883 186.234 126.39 187.679L127.393 189.409C130.192 187.787 132.334 185.603 133.792 182.861L132.026 181.922ZM126.394 187.676C123.919 189.094 120.837 189.844 117.101 189.875L117.117 191.875C121.108 191.842 124.547 191.039 127.388 189.412L126.394 187.676ZM117.101 189.875C113.341 189.907 110.242 189.207 107.757 187.832L106.789 189.582C109.646 191.163 113.105 191.909 117.117 191.875L117.101 189.875ZM107.758 187.832C105.231 186.43 103.338 184.546 102.049 182.177L100.293 183.133C101.774 185.855 103.949 188.006 106.787 189.581L107.758 187.832ZM102.049 182.176C100.739 179.777 100.062 177.072 100.037 174.039L98.0371 174.056C98.0647 177.387 98.8111 180.42 100.293 183.134L102.049 182.176ZM100.037 174.039C100.012 171.031 100.643 168.326 101.914 165.904L100.143 164.975C98.7062 167.712 98.0096 170.746 98.0371 174.056L100.037 174.039ZM101.915 165.901C103.165 163.5 105.026 161.58 107.528 160.137L106.529 158.404C103.715 160.027 101.576 162.22 100.141 164.978L101.915 165.901ZM107.53 160.136C109.991 158.71 113.077 157.953 116.836 157.922L116.819 155.922C112.806 155.955 109.359 156.764 106.527 158.405L107.53 160.136ZM116.9 165.672C114.727 165.69 112.837 165.994 111.261 166.622L112.001 168.48C113.28 167.97 114.908 167.688 116.917 167.672L116.9 165.672ZM111.27 166.618C109.676 167.236 108.412 168.173 107.549 169.457L109.209 170.573C109.805 169.686 110.71 168.98 111.993 168.483L111.27 166.618ZM107.556 169.447C106.676 170.723 106.272 172.256 106.287 173.987L108.287 173.971C108.275 172.566 108.6 171.456 109.202 170.583L107.556 169.447ZM106.287 173.987C106.301 175.719 106.73 177.249 107.628 178.518L109.261 177.364C108.641 176.487 108.298 175.375 108.287 173.971L106.287 173.987ZM107.627 178.517C108.511 179.772 109.786 180.686 111.385 181.287L112.09 179.415C110.793 178.927 109.874 178.234 109.262 177.366L107.627 178.517ZM111.389 181.289C112.973 181.877 114.865 182.144 117.037 182.126L117.02 180.126C115.009 180.142 113.375 179.893 112.086 179.414L111.389 181.289ZM117.037 182.126C119.208 182.108 121.1 181.809 122.684 181.196L121.961 179.331C120.667 179.832 119.03 180.109 117.02 180.126L117.037 182.126ZM122.693 181.192C124.27 180.564 125.526 179.631 126.398 178.367L124.752 177.231C124.141 178.116 123.229 178.826 121.952 179.335L122.693 181.192ZM126.405 178.357C127.268 177.073 127.664 175.539 127.65 173.81L125.65 173.827C125.661 175.234 125.341 176.354 124.745 177.241L126.405 178.357ZM127.65 173.81C127.635 172.082 127.214 170.558 126.327 169.298L124.691 170.449C125.299 171.313 125.638 172.419 125.65 173.827L127.65 173.81ZM126.326 169.296C125.432 168.032 124.157 167.117 122.564 166.525L121.868 168.4C123.148 168.876 124.068 169.567 124.693 170.45L126.326 169.296ZM122.568 166.527C120.973 165.926 119.073 165.654 116.9 165.672L116.917 167.672C118.925 167.655 120.564 167.91 121.864 168.399L122.568 166.527ZM99.1657 132.024L98.1657 132.032L98.174 133.032L99.174 133.024L99.1657 132.024ZM99.0871 122.547L99.0788 121.547L98.0788 121.555L98.0871 122.555L99.0871 122.547ZM128.369 124.213L127.828 125.054L127.829 125.055L128.369 124.213ZM132.896 129.46L133.8 129.032L133.798 129.029L132.896 129.46ZM133.027 145.243L133.936 145.659L133.938 145.655L133.027 145.243ZM128.588 150.564L129.136 151.401L129.141 151.397L128.588 150.564ZM99.3371 152.682L98.3371 152.69L98.3454 153.69L99.3454 153.682L99.3371 152.682ZM99.2585 143.205L99.2502 142.205L98.2502 142.213L98.2585 143.213L99.2585 143.205ZM123.695 142.286L124.191 143.155L124.196 143.152L123.695 142.286ZM125.656 140.293L126.529 140.779L126.532 140.774L125.656 140.293ZM125.608 134.497L126.473 133.997L125.608 134.497ZM123.614 132.537L124.1 131.663L124.095 131.66L123.614 132.537ZM100.166 132.015L100.087 122.538L98.0871 122.555L98.1657 132.032L100.166 132.015ZM99.0954 123.547L121.458 123.361L121.442 121.361L99.0788 121.547L99.0954 123.547ZM121.458 123.361C123.952 123.34 126.061 123.917 127.828 125.054L128.91 123.372C126.77 121.995 124.266 121.338 121.442 121.361L121.458 123.361ZM127.829 125.055C129.602 126.191 130.991 127.792 131.993 129.89L133.798 129.029C132.649 126.622 131.021 124.725 128.909 123.371L127.829 125.055ZM131.991 129.887C132.983 131.985 133.505 134.457 133.529 137.33L135.529 137.313C135.503 134.208 134.937 131.44 133.8 129.032L131.991 129.887ZM133.529 137.33C133.553 140.226 133.071 142.718 132.115 144.831L133.938 145.655C135.035 143.229 135.555 140.439 135.529 137.313L133.529 137.33ZM132.117 144.827C131.15 146.942 129.787 148.566 128.034 149.731L129.141 151.397C131.23 150.008 132.827 148.084 133.936 145.659L132.117 144.827ZM128.04 149.728C126.29 150.874 124.188 151.476 121.692 151.496L121.708 153.496C124.529 153.473 127.019 152.787 129.136 151.401L128.04 149.728ZM121.692 151.496L99.3288 151.682L99.3454 153.682L121.708 153.496L121.692 151.496ZM100.337 152.674L100.258 143.197L98.2585 143.213L98.3371 152.69L100.337 152.674ZM99.2668 144.205L120.811 144.026L120.795 142.026L99.2502 142.205L99.2668 144.205ZM120.811 144.026C122.044 144.016 123.179 143.733 124.191 143.155L123.199 141.418C122.515 141.809 121.722 142.019 120.795 142.026L120.811 144.026ZM124.196 143.152C125.189 142.577 125.971 141.782 126.529 140.779L124.782 139.806C124.399 140.493 123.875 141.027 123.194 141.421L124.196 143.152ZM126.532 140.774C127.093 139.753 127.358 138.613 127.347 137.381L125.348 137.397C125.355 138.324 125.159 139.12 124.779 139.811L126.532 140.774ZM127.347 137.381C127.337 136.14 127.055 135.002 126.473 133.997L124.742 134.998C125.129 135.667 125.34 136.457 125.348 137.397L127.347 137.381ZM126.473 133.997C125.899 133.003 125.103 132.221 124.1 131.663L123.128 133.41C123.815 133.793 124.348 134.318 124.742 134.998L126.473 133.997ZM124.095 131.66C123.074 131.099 121.934 130.835 120.702 130.845L120.719 132.845C121.646 132.837 122.442 133.034 123.133 133.413L124.095 131.66ZM120.702 130.845L99.1574 131.024L99.174 133.024L120.719 132.845L120.702 130.845ZM106.694 118.934L106.702 119.934L107.702 119.925L107.694 118.925L106.694 118.934ZM99.0576 118.997L98.0577 119.005L98.066 120.005L99.0659 119.997L99.0576 118.997ZM98.8059 88.6572L98.7976 87.6572L97.7977 87.6655L97.8059 88.6655L98.8059 88.6572ZM106.442 88.5938L107.442 88.5855L107.434 87.5855L106.434 87.5938L106.442 88.5938ZM106.529 99.0934L105.529 99.1017L105.537 100.102L106.537 100.093L106.529 99.0934ZM133.801 98.8672L134.801 98.8589L134.793 97.8589L133.793 97.8672L133.801 98.8672ZM133.878 108.208L133.887 109.208L134.887 109.199L134.878 108.199L133.878 108.208ZM106.607 108.434L106.598 107.434L105.598 107.442L105.607 108.442L106.607 108.434ZM106.685 117.934L99.0493 117.997L99.0659 119.997L106.702 119.934L106.685 117.934ZM100.058 118.989L99.8059 88.6489L97.8059 88.6655L98.0577 119.005L100.058 118.989ZM98.8142 89.6571L106.45 89.5938L106.434 87.5938L98.7976 87.6572L98.8142 89.6571ZM105.442 88.6021L105.529 99.1017L107.529 99.0851L107.442 88.5855L105.442 88.6021ZM106.537 100.093L133.809 99.8671L133.793 97.8672L106.521 98.0935L106.537 100.093ZM132.801 98.8755L132.878 108.216L134.878 108.199L134.801 98.8589L132.801 98.8755ZM133.87 107.208L106.598 107.434L106.615 109.434L133.887 109.208L133.87 107.208ZM105.607 108.442L105.694 118.942L107.694 118.925L107.607 108.426L105.607 108.442ZM98.697 75.5283L97.697 75.5366L97.7053 76.5366L98.7053 76.5283L98.697 75.5283ZM98.5991 63.7333L98.2118 62.8113L97.5936 63.071L97.5992 63.7416L98.5991 63.7333ZM118.304 55.4559L118.691 56.3779L119.309 56.1181L119.304 55.4476L118.304 55.4559ZM118.3 55.0468L119.3 55.0385L119.295 54.368L118.672 54.1186L118.3 55.0468ZM98.4611 47.0975L97.4611 47.1058L97.4667 47.7764L98.0892 48.0258L98.4611 47.0975ZM98.3633 35.3025L98.355 34.3025L97.355 34.3108L97.3633 35.3107L98.3633 35.3025ZM133.271 35.0128L134.271 35.0045L134.263 34.0046L133.263 34.0129L133.271 35.0128ZM133.348 44.2853L133.356 45.2852L134.356 45.2769L134.348 44.277L133.348 44.2853ZM113.167 44.4527L113.159 43.4527L112.159 43.461L112.167 44.461L113.167 44.4527ZM113.169 44.7254L112.169 44.7337L112.175 45.4168L112.813 45.6599L113.169 44.7254ZM133.142 52.3327L134.142 52.3244L134.136 51.6413L133.498 51.3982L133.142 52.3327ZM133.188 57.9234L133.558 58.8527L134.194 58.5999L134.188 57.9151L133.188 57.9234ZM113.208 65.8622L112.839 64.9328L112.203 65.1857L112.208 65.8705L113.208 65.8622ZM113.21 66.1349L112.211 66.1432L112.219 67.1432L113.219 67.1349L113.21 66.1349ZM133.528 65.9663L134.528 65.958L134.52 64.9581L133.52 64.9664L133.528 65.9663ZM133.605 75.2387L133.613 76.2387L134.613 76.2304L134.605 75.2304L133.605 75.2387ZM99.697 75.5201L99.5991 63.725L97.5992 63.7416L97.697 75.5366L99.697 75.5201ZM98.9864 64.6553L118.691 56.3779L117.917 54.5339L98.2118 62.8113L98.9864 64.6553ZM119.304 55.4476L119.3 55.0385L117.301 55.0551L117.304 55.4642L119.304 55.4476ZM118.672 54.1186L98.8331 46.1692L98.0892 48.0258L117.929 55.9751L118.672 54.1186ZM99.4611 47.0892L99.3632 35.2942L97.3633 35.3107L97.4611 47.1058L99.4611 47.0892ZM98.3716 36.3024L133.279 36.0128L133.263 34.0129L98.355 34.3025L98.3716 36.3024ZM132.271 35.0211L132.348 44.2936L134.348 44.277L134.271 35.0045L132.271 35.0211ZM133.34 43.2853L113.159 43.4527L113.175 45.4527L133.356 45.2852L133.34 43.2853ZM112.167 44.461L112.169 44.7337L114.169 44.7171L114.167 44.4444L112.167 44.461ZM112.813 45.6599L132.786 53.2672L133.498 51.3982L113.525 43.7909L112.813 45.6599ZM132.142 52.341L132.189 57.9317L134.188 57.9151L134.142 52.3244L132.142 52.341ZM132.819 56.9941L112.839 64.9328L113.577 66.7915L133.558 58.8527L132.819 56.9941ZM112.208 65.8705L112.211 66.1432L114.21 66.1266L114.208 65.8539L112.208 65.8705ZM113.219 67.1349L133.536 66.9663L133.52 64.9664L113.202 65.1349L113.219 67.1349ZM132.528 65.9746L132.605 75.247L134.605 75.2304L134.528 65.958L132.528 65.9746ZM133.597 74.2388L98.6887 74.5284L98.7053 76.5283L133.613 76.2387L133.597 74.2388ZM133.234 30.5215L133.242 31.5215L134.242 31.5132L134.234 30.5132L133.234 30.5215ZM98.326 30.8111L97.326 30.8194L97.3343 31.8194L98.3343 31.8111L98.326 30.8111ZM98.1173 5.65291L98.109 4.65295L97.109 4.66124L97.1173 5.66121L98.1173 5.65291ZM105.753 5.58956L106.753 5.58126L106.745 4.5813L105.745 4.5896L105.753 5.58956ZM105.883 21.2708L104.884 21.2791L104.892 22.2791L105.892 22.2708L105.883 21.2708ZM111.883 21.2211L111.892 22.221L112.892 22.2127L112.883 21.2128L111.883 21.2211ZM111.764 6.83518L111.756 5.83521L110.756 5.84351L110.764 6.84348L111.764 6.83518ZM119.4 6.77183L120.4 6.76353L120.392 5.76356L119.392 5.77186L119.4 6.77183ZM119.519 21.1577L118.519 21.166L118.528 22.166L119.528 22.1577L119.519 21.1577ZM125.519 21.1079L125.527 22.1079L126.527 22.0996L126.519 21.0996L125.519 21.1079ZM125.39 5.49483L125.381 4.49486L124.381 4.50316L124.39 5.50312L125.39 5.49483ZM133.026 5.43147L134.026 5.42318L134.017 4.42321L133.017 4.43151L133.026 5.43147ZM133.226 29.5216L98.3177 29.8112L98.3343 31.8111L133.242 31.5215L133.226 29.5216ZM99.326 30.8028L99.1172 5.64462L97.1173 5.66121L97.326 30.8194L99.326 30.8028ZM98.1256 6.65288L105.762 6.58953L105.745 4.5896L98.109 4.65295L98.1256 6.65288ZM104.753 5.59786L104.884 21.2791L106.883 21.2625L106.753 5.58126L104.753 5.59786ZM105.892 22.2708L111.892 22.221L111.875 20.2211L105.875 20.2709L105.892 22.2708ZM112.883 21.2128L112.764 6.82688L110.764 6.84348L110.883 21.2293L112.883 21.2128ZM111.772 7.83516L119.408 7.77181L119.392 5.77186L111.756 5.83521L111.772 7.83516ZM118.4 6.78012L118.519 21.166L120.519 21.1494L120.4 6.76353L118.4 6.78012ZM119.528 22.1577L125.527 22.1079L125.511 20.108L119.511 20.1577L119.528 22.1577ZM126.519 21.0996L126.39 5.48653L124.39 5.50312L124.519 21.1162L126.519 21.0996ZM125.398 6.49479L133.034 6.43144L133.017 4.43151L125.381 4.49486L125.398 6.49479ZM132.026 5.43977L132.234 30.5298L134.234 30.5132L134.026 5.42318L132.026 5.43977Z" fill="#4258FF" fill-opacity="0.5" mask="url(#path-5-outside-3_5_270)"/>
</svg>
